<?xml version="1.0" encoding="utf-8"?>
<!-- Generator: Adobe Illustrator 24.2.1, SVG Export Plug-In . SVG Version: 6.00 Build 0)  -->
<svg version="1.1" id="Layer_1" xmlns="http://www.w3.org/2000/svg" xmlns:xlink="http://www.w3.org/1999/xlink" x="0px" y="0px"
	 viewBox="0 0 150 209" style="enable-background:new 0 0 150 209;" xml:space="preserve">
<style type="text/css">
	.st0{fill-rule:evenodd;clip-rule:evenodd;}
</style>
<path class="st0" d="M98.81,0c16.18,0,26.36,15.84,26.36,32.16c0,0.38,0.07,1.1,0.2,2.12c-0.8,14.13-9.56,23.37-18.97,27.41
	c-2.82,1.21-4.12,0.35-4-1.85c1.73-5.7,3.86-9.37,3.86-23.32c0-14.99-7.89-29.25-17.63-29.25C72.3,7.28,55.81,42.6,55.81,72.6
	c0,57.49-4.62,80.25,11.72,80.25c41.54,0,35.19-36.9,33.15-64.3C91.21,89.71,83.81,91.54,80,94c0-8.17,4.03-18.24,35.53-18.24
	c13.4,0,23.89-1.92,31.47-5.76c0,8.09-2.09,15.97-19.78,16.97c-0.53,14.16,0.01,22.65-4.57,33.74c-5.19,12.58-17.13,23.27-31.5,30.8
	c-9.53,6.85-20.93,13.79-34.2,20.79c20.62,2.66,38.99,13.4,61.19,12.7c9.37-0.3,20.55-8.8,25.56-13.29c2.05-1.83,6.3-3.63,6.3-0.59
	c0,2.07-3.63,6.92-5.42,8.66C139.23,185,119.33,209,103.37,209c-10.12,0-35.31-17.15-56.71-17.15c-17.3,0-32.93,7.32-42.66,12.48
	c-3.67,1.95-3.99,0.93-4-0.54l0-0.21c0.02-1.43,0.44-1.86,3.87-4.5c10.7-8.22,30.71-25.15,42.11-27.18l19.37-10.95
	c-6.64,1.49-13.27,2.29-19.57,2.29c-31.29,0-19.75-41.26-19.75-103.86c0-12.33,4.32-21.21,21.06-34.98
	c9.84-8.1,17.57-13.21,24.96-17.4C80.01,2.5,87.87,0,98.81,0z"/>
</svg>
